<?xml version="1.0" encoding="UTF-8" standalone="no" ?>
<!DOCTYPE svg PUBLIC "-//W3C//DTD SVG 1.1//EN" "http://www.w3.org/Graphics/SVG/1.1/DTD/svg11.dtd">
<svg xmlns="http://www.w3.org/2000/svg" xmlns:xlink="http://www.w3.org/1999/xlink" version="1.1" width="1080" height="1080" viewBox="0 0 1080 1080" xml:space="preserve">
<desc>Created with Fabric.js 5.2.4</desc>
<defs>
</defs>
<g transform="matrix(1 0 0 1 540 540)" id="9ea7cbb4-253a-4019-ab5c-8521110c5ad6"  >
<rect style="stroke: none; stroke-width: 1; stroke-dasharray: none; stroke-linecap: butt; stroke-dashoffset: 0; stroke-linejoin: miter; stroke-miterlimit: 4; fill: rgb(255,255,255); fill-rule: nonzero; opacity: 1; visibility: hidden;" vector-effect="non-scaling-stroke"  x="-540" y="-540" rx="0" ry="0" width="1080" height="1080" />
</g>
<g transform="matrix(1 0 0 1 540 540)" id="3e91ffb1-8669-4301-a3d6-07078ee10081"  >
</g>
<g transform="matrix(60.46 0 0 60.46 540 540)" id="720bd132-5247-48ed-aad2-11a81f1c8e0a"  >
<path style="stroke: rgb(0,0,0); stroke-width: 0; stroke-dasharray: none; stroke-linecap: butt; stroke-dashoffset: 0; stroke-linejoin: miter; stroke-miterlimit: 4; fill: rgb(255,255,255); fill-rule: nonzero; opacity: 1;" vector-effect="non-scaling-stroke"  transform=" translate(-8, -8)" d="M 8 0 C 8.552284749830793 0 9 0.4477152501692063 9 0.9999999999999998 L 9 6.268 L 13.562000000000001 3.634 C 13.871570416194754 3.4525156229428573 14.254649468943413 3.4508166941346907 14.565817417120813 3.629548139957408 C 14.876985365298212 3.808279585780125 15.068530989370977 4.140036606674153 15.067742104043516 4.498881697707529 C 15.066953218716055 4.857726788740905 14.87395078336502 5.188638418881755 14.562000000000001 5.366 L 10 8 L 14.562000000000001 10.634 C 14.873950783365032 10.811361581118238 15.06695321871608 11.142273211259091 15.067742104043544 11.501118302292475 C 15.06853098937101 11.85996339332586 14.876985365298241 12.191720414219896 14.565817417120833 12.370451860042614 C 14.254649468943425 12.549183305865332 13.871570416194755 12.547484377057158 13.562000000000001 12.366 L 9 9.732 L 9 15 C 9 15.552284749830793 8.552284749830793 16 8 16 C 7.447715250169207 16 7 15.552284749830793 7 15 L 7 9.732 L 2.4379999999999997 12.366 C 2.128429583805246 12.547484377057156 1.7453505310565771 12.549183305865332 1.4341825828791686 12.370451860042614 C 1.12301463470176 12.191720414219896 0.9314690106289905 11.85996339332586 0.9322578959564556 11.501118302292475 C 0.9330467812839207 11.142273211259091 1.1260492166349692 10.811361581118238 1.4379999999999995 10.634 L 6 8 L 1.438 5.366 C 0.9637863864035603 5.087994228927157 0.8028713902639468 4.479352959842074 1.0777254678889934 4.003305697395493 C 1.35257954551404 3.5272584349489113 1.9601400350132365 3.3623097095351966 2.4379999999999997 3.6339999999999995 L 7 6.268 L 7 1 C 7 0.44771525016920655 7.447715250169207 0 8 0" stroke-linecap="round" />
</g>
</svg>